<svg xmlns="http://www.w3.org/2000/svg" viewBox="0 0 512 512">
  <rect width="512" height="512" rx="128" fill="#f9f7e8"/>
  <path d="M160 120c-22 0-40 18-40 40v192c0 22 18 40 40 40h192c22 0 40-18 40-40V160c0-22-18-40-40-40H160zm0 32h192c4 0 8 4 8 8v192c0 4-4 8-8 8H160c-4 0-8-4-8-8V160c0-4 4-8 8-8z" fill="#3a3a3a" opacity="0.2"/>
  <path d="M200 180c-11 0-20 9-20 20v112c0 11 9 20 20 20s20-9 20-20V200c0-11-9-20-20-20zM312 180c-11 0-20 9-20 20v112c0 11 9 20 20 20s20-9 20-20V200c0-11-9-20-20-20z" fill="#3a3a3a"/>
  <path d="M256 160c-11 0-20 9-20 20v152c0 11 9 20 20 20s20-9 20-20V180c0-11-9-20-20-20z" fill="#3a3a3a" opacity="0.5"/>
</svg>

